<?xml version="1.0" encoding="UTF-8"?>
<svg version="1.1" xmlns="http://www.w3.org/2000/svg" width="2000" height="1500">
<path d="M0 0 C660 0 1320 0 2000 0 C2000 495 2000 990 2000 1500 C1340 1500 680 1500 0 1500 C0 1005 0 510 0 0 Z " fill="#FEFEFE" transform="translate(0,0)"/>
<path d="M0 0 C1.55966623 -0.0023061 3.11933136 -0.00548363 4.67899424 -0.00945449 C8.95336852 -0.01779066 13.2276533 -0.01368255 17.50202787 -0.00748205 C22.11628723 -0.00295372 26.73053129 -0.00994325 31.3447876 -0.01544189 C40.37988032 -0.02433366 49.41493981 -0.02241478 58.45003384 -0.01661661 C65.79387667 -0.01209901 73.1377102 -0.01148765 80.48155403 -0.01366425 C81.52695815 -0.01397071 82.57236228 -0.01427718 83.64944531 -0.01459293 C85.77320746 -0.01523239 87.89696961 -0.01588081 90.02073175 -0.01653811 C109.93419123 -0.02224085 129.84763228 -0.01568454 149.76108874 -0.00493738 C166.84395465 0.00399677 183.92679339 0.0024471 201.00965881 -0.0067749 C220.85054155 -0.01748078 240.69140815 -0.02169015 260.53229338 -0.01555037 C262.64852845 -0.01491328 264.76476353 -0.01428454 266.88099861 -0.01366425 C267.92220598 -0.01335569 268.96341335 -0.01304714 270.03617246 -0.01272924 C277.36981124 -0.01100316 284.70343976 -0.01391557 292.03707695 -0.01862335 C300.97638383 -0.02423577 309.9156556 -0.02270818 318.85495847 -0.01206186 C323.41502371 -0.00680983 327.97503042 -0.00474044 332.53509521 -0.01136017 C336.71169241 -0.01733146 340.88817696 -0.01402502 345.06476397 -0.00340506 C346.57342218 -0.00117603 348.08208996 -0.00229615 349.59074198 -0.00715664 C364.78104591 -0.05233122 378.46614272 2.3456026 389.93959045 13.22271729 C400.64440971 25.24540846 403.35720449 38.39735413 403.25611877 54.0425415 C403.26073599 55.61177586 403.26709439 57.18100588 403.27502775 58.75022697 C403.29163161 63.03266492 403.28351576 67.31474352 403.27108288 71.59718227 C403.26199784 76.22712501 403.27601918 80.85700781 403.28700256 85.48693848 C403.30475561 94.54524817 403.30096214 103.60342501 403.289352 112.66173983 C403.28030529 120.02596912 403.27909903 127.39016127 403.28344727 134.75439453 C403.2840602 135.80394125 403.28467313 136.85348797 403.28530464 137.93483913 C403.28658358 140.06721196 403.28788044 142.19958477 403.289195 144.33195758 C403.30059139 164.31040445 403.28750187 184.28877781 403.26599354 204.26721263 C403.24812342 221.39629786 403.25122779 238.52527464 403.26966858 255.65435791 C403.29109192 275.56306556 403.29949284 295.47170884 403.28721952 315.38042641 C403.28594538 317.50479761 403.28468789 319.62916882 403.28344727 321.75354004 C403.28252161 323.32124029 403.28252161 323.32124029 403.28157726 324.92061126 C403.27812876 332.27293629 403.28394193 339.62522037 403.29336548 346.97753906 C403.3046031 355.94195464 403.30150835 364.90623018 403.2802425 373.87062979 C403.26975583 378.44127958 403.26556949 383.01169618 403.27883911 387.58234406 C403.29081838 391.77201336 403.28411001 395.96123482 403.2629289 400.15086389 C403.25848616 401.66079846 403.26067632 403.1707714 403.27043205 404.68068099 C403.35901609 419.53873281 399.91953596 431.8706847 390.00990295 443.25006104 C380.64250629 452.25640172 368.84387009 456.37465064 356.04265118 456.38260174 C354.72512409 456.38582618 353.407597 456.38905063 352.05014485 456.39237279 C350.5998564 456.39090185 349.14956804 456.38933415 347.69927979 456.38768005 C346.14943983 456.38954926 344.59960034 456.3918504 343.04976159 456.39454538 C338.79788603 456.40065622 334.54603014 456.40053062 330.29415119 456.399351 C325.70576161 456.39914681 321.11737833 456.40466745 316.5289917 456.40940857 C307.54223133 456.41771166 298.55547751 456.42046325 289.56871363 456.42102095 C282.26347285 456.42149625 274.95823424 456.42355172 267.65299416 456.42672157 C246.93809605 456.43552707 226.22320312 456.44014109 205.50830313 456.4393911 C204.39177785 456.43935114 203.27525257 456.43931119 202.12489319 456.43927002 C201.00700365 456.43922914 199.88911411 456.43918826 198.73734913 456.43914614 C180.61886722 456.43873965 162.50040609 456.44831006 144.38193019 456.46240839 C125.77487463 456.47677258 107.1678292 456.48367855 88.56076795 456.48281461 C78.11556802 456.48248266 67.67038987 456.48522872 57.22519493 456.49599266 C48.33237498 456.50509819 39.43958669 456.50727245 30.5467641 456.50048324 C26.01088259 456.49721837 21.47506183 456.4971602 16.9391861 456.50583649 C12.78347188 456.51370375 8.62786658 456.51226773 4.47215501 456.50355235 C2.97219577 456.50201788 1.47222838 456.50383156 -0.02772126 456.50941243 C-16.3980822 456.56626709 -28.67178476 454.32736659 -40.91978455 442.79302979 C-49.75134778 433.17742493 -53.36253222 423.42867817 -53.38883018 410.47872734 C-53.39148201 409.83127481 -53.39413384 409.18382228 -53.39686602 408.51674998 C-53.4045 406.35629534 -53.40511591 404.19589809 -53.40571594 402.03543091 C-53.40973444 400.46710449 -53.4141733 398.8987791 -53.4189955 397.33045495 C-53.4309232 393.02736948 -53.43660056 388.7242952 -53.44117665 384.42119646 C-53.44714701 379.77752993 -53.45875303 375.13387667 -53.46946716 370.49021912 C-53.4939551 359.28052479 -53.50861132 348.07082608 -53.52152723 336.86111325 C-53.52524125 333.69392362 -53.5292143 330.52673443 -53.5332799 327.35954523 C-53.55851426 307.68100515 -53.5805617 288.00246435 -53.59300804 268.32391167 C-53.5959376 263.76902133 -53.59889929 259.21413101 -53.60191345 254.65924072 C-53.6026595 253.52718504 -53.60340555 252.39512936 -53.60417421 251.22876896 C-53.61682858 232.8891801 -53.65005545 214.54968817 -53.69171529 196.21014462 C-53.7341576 177.37142287 -53.75770556 158.53275073 -53.76292861 139.69398129 C-53.76633967 129.12063721 -53.77805942 118.54744475 -53.81103134 107.9741478 C-53.83906426 98.97011849 -53.8500168 89.96627191 -53.83883588 80.96220236 C-53.83365796 76.37114302 -53.83647969 71.78046615 -53.86130142 67.18946266 C-53.88387106 62.97975189 -53.88299476 58.77069664 -53.86409755 54.56097378 C-53.86130834 53.04480195 -53.86683562 51.52858493 -53.88191049 50.01248549 C-54.02366755 34.81661268 -50.01195607 23.26961165 -39.3768158 12.32427979 C-27.83448227 1.48007127 -15.16542849 -0.04878052 0 0 Z " fill="#3D9970" transform="translate(319.25181579589844,521.7460327148438)"/>
<path d="M0 0 C61.05 0 122.1 0 185 0 C185 16.17 185 32.34 185 49 C182.91988132 46.22650842 181.15711149 43.62120985 179.375 40.6875 C173.81165696 32.35618825 166.3286417 28.12932178 157 25 C155.63024521 24.51350479 155.63024521 24.51350479 154.2328186 24.0171814 C142.5357986 20.33680442 130.04609106 20.66630533 117.9140625 20.5859375 C116.31989647 20.56895124 114.72573913 20.55112915 113.1315918 20.5324707 C107.29616046 20.46991115 101.46056616 20.42337561 95.625 20.375 C82.54875 20.25125 69.4725 20.1275 56 20 C56 69.17 56 118.34 56 169 C79.945625 168.8453125 79.945625 168.8453125 104.375 168.6875 C109.40024902 168.66260498 114.42549805 168.63770996 119.60302734 168.61206055 C124.14010784 168.57546079 124.14010784 168.57546079 128.67715454 168.5349884 C130.68501269 168.51892596 132.69292186 168.50857899 134.70083618 168.50288391 C137.75704901 168.4930738 140.81260468 168.46465477 143.86865234 168.43237305 C144.75077078 168.43379901 145.63288921 168.43522497 146.54173851 168.43669415 C154.71068346 168.31436017 162.35590927 166.47028942 169.3125 162.0625 C170.48232422 161.33740234 170.48232422 161.33740234 171.67578125 160.59765625 C174.2080071 158.85701697 176.60055991 156.91955207 179 155 C179 171.17 179 187.34 179 204 C176.69 202.02 174.38 200.04 172 198 C169.12813612 196.1328946 169.12813612 196.1328946 166.3125 194.6875 C165.40113281 194.19636719 164.48976563 193.70523438 163.55078125 193.19921875 C159.87915317 191.47304751 156.72669886 190.87697375 152.68463135 190.84178162 C151.83107182 190.83200759 150.97751228 190.82223356 150.09808731 190.81216335 C148.70036905 190.80350797 148.70036905 190.80350797 147.27441406 190.79467773 C146.27280117 190.78464501 145.27118828 190.77461229 144.23922348 190.76427555 C140.99804749 190.73290134 137.75685926 190.70812373 134.515625 190.68359375 C132.51415611 190.66518932 130.51269114 190.64635259 128.51123047 190.6270752 C121.09086681 190.558641 113.67042784 190.49857959 106.25 190.4375 C89.6675 190.293125 73.085 190.14875 56 190 C56 238.84 56 287.68 56 338 C71.159375 337.9175 86.31875 337.835 101.9375 337.75 C106.69019287 337.73420898 111.44288574 337.71841797 116.33959961 337.70214844 C120.6716605 337.66885063 120.6716605 337.66885063 125.00367737 337.63043213 C126.9045563 337.61600103 128.80550254 337.60905364 130.70643616 337.60845947 C153.40696382 337.5892534 175.55363412 334.12584429 192.46484375 317.58984375 C194.38838486 315.44421781 196.21790692 313.26373986 198 311 C198.825 309.989375 199.65 308.97875 200.5 307.9375 C200.995 307.298125 201.49 306.65875 202 306 C201.40908091 312.68319296 200.54734711 319.26457206 199.40625 325.875 C199.25466431 326.76614502 199.10307861 327.65729004 198.94689941 328.57543945 C198.62920284 330.43778738 198.30980981 332.29984666 197.98876953 334.16162109 C197.496612 337.01967475 197.01164717 339.87888737 196.52734375 342.73828125 C196.21657128 344.55476034 195.90538836 346.37116926 195.59375 348.1875 C195.44893188 349.04263184 195.30411377 349.89776367 195.15490723 350.77880859 C194.11507724 356.76984551 194.11507724 356.76984551 193 359 C129.31 359 65.62 359 0 359 C1.65 357.35 3.3 355.7 5 354 C16.40413178 341.74604109 18.31854958 324.02780545 18.26069641 308.00349426 C18.26452196 306.85775757 18.26834751 305.71202088 18.27228898 304.53156489 C18.28253706 300.72517837 18.27864242 296.918945 18.2746582 293.11254883 C18.27791867 290.36991953 18.28413002 287.62729852 18.29014587 284.88467407 C18.30284758 278.2270552 18.30469216 271.56947675 18.30234561 264.91184781 C18.30055684 259.49465534 18.30232403 254.07747506 18.30657005 248.66028404 C18.30716524 247.8869417 18.30776043 247.11359936 18.30837366 246.31682241 C18.30958552 244.74534124 18.31079965 243.17386009 18.31201603 241.60237893 C18.32287459 226.88822372 18.32073735 212.17409146 18.31463119 197.45993497 C18.30946618 184.03147824 18.32070948 170.60309415 18.33972941 157.17465178 C18.3591546 143.35300127 18.36735545 129.53138503 18.36360615 115.70972079 C18.36170086 107.96335025 18.36411558 100.21704147 18.37832069 92.47068214 C18.3902955 85.87430659 18.39157179 79.27803079 18.37953053 72.68165372 C18.37368357 69.32349113 18.37408414 65.96565811 18.38453293 62.60748482 C19.11748177 32.09072137 19.11748177 32.09072137 5.765625 5.61328125 C3.62861488 3.69823919 3.62861488 3.69823919 1.50390625 2.13671875 C1.00761719 1.76160156 0.51132813 1.38648438 0 1 C0 0.67 0 0.34 0 0 Z " fill="#2F7C5A" transform="translate(1529,553)"/>
<path d="M0 0 C61.05 0 122.1 0 185 0 C185 16.5 185 33 185 50 C183.80733366 48.21100048 182.64612532 46.39936947 181.5546875 44.546875 C174.60909594 32.98165743 165.84268866 26.07501319 152.81999207 22.38174438 C143.19256747 20.42194399 133.4570776 20.64486388 123.67578125 20.5859375 C121.93956663 20.56897008 120.20336013 20.55114989 118.46716309 20.5324707 C112.08236835 20.46968283 105.69742074 20.42330384 99.3125 20.375 C85.019375 20.25125 70.72625 20.1275 56 20 C56 69.17 56 118.34 56 169 C72.314375 168.87625 88.62875 168.7525 105.4375 168.625 C110.57626709 168.59100098 115.71503418 168.55700195 121.00952148 168.52197266 C125.64241419 168.48203421 125.64241419 168.48203421 130.27528381 168.43954468 C132.32819439 168.4219358 134.38113954 168.40809741 136.43409729 168.39730835 C139.55574016 168.38015411 142.67706185 168.35078709 145.79858398 168.31884766 C146.70303725 168.31667551 147.60749052 168.31450336 148.53935146 168.3122654 C157.45623479 168.19556241 167.97173313 167.09065232 174.57421875 160.40625 C175.75655546 158.96982947 176.88373809 157.48834921 178 156 C178.33 156 178.66 156 179 156 C179 171.51 179 187.02 179 203 C177.35 201.35 175.7 199.7 174 198 C165.10211352 191.51195777 156.73557368 190.86242165 146.02563477 190.79467773 C145.04925552 190.78477814 144.07287628 190.77487854 143.06690979 190.76467896 C139.85843278 190.73323906 136.649941 190.70837612 133.44140625 190.68359375 C131.20938241 190.66300909 128.97736233 190.64201223 126.74534607 190.62062073 C120.88464416 190.56555625 115.02390798 190.51607833 109.16314697 190.46777344 C103.17709318 190.41744403 97.19108885 190.36181779 91.20507812 190.30664062 C79.47009439 190.19925027 67.73506761 190.09776318 56 190 C56.06074834 206.95171638 56.13839722 223.90326207 56.23571491 240.85480595 C56.28052314 248.72716488 56.31997153 256.59948008 56.34643555 264.47192383 C56.36953775 271.34014058 56.4030699 278.20821718 56.44870156 285.0763225 C56.47247056 288.70696463 56.49130541 292.33746939 56.49761391 295.96818733 C56.00345766 327.04618875 56.00345766 327.04618875 70 354 C71.85335703 355.38094096 71.85335703 355.38094096 73.75 356.3125 C74.8225 356.869375 75.895 357.42625 77 358 C77 358.33 77 358.66 77 359 C51.26 359 25.52 359 -1 359 C2 356 2 356 4.8125 354.0625 C12.52980684 347.65060825 15.1663384 336.4319241 17 327 C17.38119541 322.84896531 17.39825411 318.73640165 17.36749268 314.57002258 C17.37076152 313.37780584 17.37403036 312.1855891 17.37739825 310.95724458 C17.38337549 307.68374486 17.37606169 304.41060194 17.36285591 301.13713396 C17.35187796 297.59316706 17.35838349 294.04922441 17.36264038 290.50524902 C17.36825221 283.57756208 17.35800056 276.64998655 17.34235242 269.72231857 C17.32475327 261.64663136 17.32339191 253.57096531 17.32273683 245.49526193 C17.32105159 231.08365001 17.30527002 216.6720886 17.28125 202.26049805 C17.25798186 188.28979066 17.24382303 174.31911528 17.24023438 160.34838867 C17.24001161 159.48741427 17.23978884 158.62643987 17.23955932 157.73937533 C17.23911671 156.00480144 17.23867468 154.27022755 17.23823325 152.53565366 C17.23801369 151.67991362 17.23779412 150.82417358 17.2375679 149.94250202 C17.23735192 149.08886177 17.23713593 148.23522152 17.2369134 147.35571339 C17.23320901 134.02004488 17.22185084 120.6843815 17.2094375 107.34871865 C17.20501013 102.52308121 17.20156862 97.69744425 17.19881538 92.87180559 C17.19437509 85.21850834 17.18657341 77.56523007 17.17204097 69.91194478 C17.16545472 66.41715822 17.16037141 62.92238825 17.15958023 59.42759514 C17.15782893 55.63471441 17.14993135 51.84189464 17.14044189 48.04902649 C17.14130838 46.95116154 17.14217486 45.8532966 17.1430676 44.72216302 C17.07596152 26.82927413 12.9259157 12.9259157 0 0 Z " fill="#307D5B" transform="translate(1270,553)"/>
<path d="M0 0 C25.08 0 50.16 0 76 0 C74.35 1.32 72.7 2.64 71 4 C63.22793629 11.34235827 58.54061825 22.12317687 57.81081462 32.75643635 C57.73201376 36.05731029 57.71609088 39.35308419 57.7215271 42.65490723 C57.7157347 43.91947675 57.7099423 45.18404628 57.70397437 46.48693609 C57.68823484 49.98056246 57.68474704 53.47410827 57.68332577 56.96776581 C57.67962111 60.74137137 57.66446034 64.51493328 57.65071106 68.28851318 C57.62846782 74.82106567 57.6134369 81.35360257 57.60334396 87.88618469 C57.5887409 97.33112514 57.56319951 106.77601127 57.53501268 116.22091979 C57.48957425 131.54570296 57.45294726 146.87049396 57.421875 162.1953125 C57.39167738 177.07944107 57.35732153 191.96355049 57.31738281 206.84765625 C57.31369049 208.22449553 57.31369049 208.22449553 57.30992357 209.62914973 C57.29754874 214.23407879 57.28509225 218.83900762 57.27259517 223.44393635 C57.16907154 261.62926434 57.07985372 299.8146156 57 338 C69.44008209 337.91535997 81.88003925 337.82038596 94.31994247 337.71247292 C100.09722271 337.66267574 105.87448612 337.61634501 111.65185547 337.578125 C117.2346009 337.54106184 122.81719957 337.49464654 128.39981842 337.44193649 C130.52226417 337.42350372 132.64474125 337.40835545 134.7672348 337.39665604 C158.17015861 337.26312073 179.16742124 334.51284677 196.875 317.5625 C200.59394837 313.67663294 203.36313661 309.67830602 206 305 C207.03159938 308.09479815 206.99898246 309.0132063 206.3984375 312.0859375 C203.37761077 327.69738554 200.7035684 343.31930327 198 359 C132.66 359 67.32 359 0 359 C1.65 357.35 3.3 355.7 5 354 C20.48622607 338.12661828 18.4384283 312.66497923 18.38818359 292.25952148 C18.39060651 289.47364582 18.39749235 286.68778492 18.40411377 283.9019165 C18.41737458 277.15458842 18.41460792 270.40736108 18.40587585 263.66002923 C18.39906988 258.17140115 18.39819509 252.68280109 18.4014473 247.19417 C18.401907 246.40969073 18.40236669 245.62521146 18.40284032 244.81696009 C18.4037996 243.22276559 18.40477225 241.62857111 18.4057581 240.03437663 C18.41428942 225.12567767 18.40451315 210.21703427 18.388357 195.30834443 C18.37495324 182.54480926 18.37728677 169.78135597 18.39111328 157.01782227 C18.4072046 142.15686592 18.41346841 127.29595812 18.40427649 112.43499428 C18.40332095 110.84733427 18.40237784 109.25967426 18.4014473 107.67201424 C18.40098447 106.8910733 18.40052164 106.11013235 18.40004479 105.30552654 C18.39746573 99.82958729 18.40180232 94.35367911 18.40888596 88.87774467 C18.41734066 82.19576361 18.41493794 75.51388813 18.39904372 68.83191901 C18.39121429 65.4294272 18.38961999 62.02725461 18.39799118 58.62474251 C18.77122967 31.4198606 18.77122967 31.4198606 8 7 C5.92489733 5.04461479 3.91190139 3.47011625 1.50390625 1.953125 C1.00761719 1.63859375 0.51132812 1.3240625 0 1 C0 0.67 0 0.34 0 0 Z " fill="#317D5B" transform="translate(842,553)"/>
<path d="M0 0 C24.75 0 49.5 0 75 0 C73.35 1.65 71.7 3.3 70 5 C59.91262197 15.13587504 56.80422608 27.81031434 56.73251319 41.76806289 C56.73697463 42.85066003 56.74143608 43.93325717 56.74603271 45.04866028 C56.74135274 46.81181274 56.74135274 46.81181274 56.73657823 48.61058444 C56.7300175 51.84659819 56.73232952 55.08245988 56.73855066 58.31846964 C56.74309765 61.81892398 56.7360802 65.31935861 56.73059082 68.81980896 C56.72171822 75.66753454 56.72360954 82.51521617 56.7294161 89.36294345 C56.73394211 94.93229582 56.73454144 100.50163592 56.73236847 106.07098961 C56.732062 106.86518535 56.73175554 107.65938109 56.73143978 108.47764337 C56.7308003 110.09132952 56.73015187 111.70501568 56.7294946 113.31870183 C56.72379727 128.43570378 56.73033925 143.55268145 56.74109533 158.66967943 C56.75002512 171.62037463 56.74848237 184.57103396 56.73925781 197.52172852 C56.72853568 212.58184562 56.72435198 227.64194144 56.73048234 242.70206183 C56.73111939 244.31056225 56.73174814 245.91906267 56.73236847 247.5275631 C56.73267702 248.31884772 56.73298557 249.11013234 56.73330347 249.92539528 C56.73502498 255.48184745 56.73212698 261.03828604 56.72740936 266.5947361 C56.72177868 273.37534588 56.72336251 280.1559094 56.73397085 286.93651394 C56.73919907 290.39129939 56.74133349 293.84600794 56.73467255 297.30079269 C56.72917605 301.05740049 56.73610105 304.81379447 56.74603271 308.57038879 C56.73934055 310.18424625 56.73934055 310.18424625 56.73251319 311.83070689 C56.80878852 326.79087398 59.12784686 341.22310202 69 353 C71.24666414 354.89406896 73.51692233 356.41083029 76 358 C76 358.33 76 358.66 76 359 C50.59 359 25.18 359 -1 359 C1.06344675 356.93655325 3.14287104 354.87968755 5.375 353 C15.42159829 341.51817338 17.15181397 327.70076001 17.14044189 313.12228394 C17.14341302 311.92899448 17.14638414 310.73570502 17.1494453 309.50625527 C17.15660198 306.20649157 17.15930277 302.90677996 17.16004276 299.60701227 C17.16189987 296.04311197 17.16945048 292.4792228 17.17617798 288.91532898 C17.18973523 281.12793045 17.19578195 273.34053708 17.20018864 265.55312872 C17.20295549 260.68632874 17.20719364 255.81953073 17.21169281 250.95273209 C17.22388209 237.46557935 17.23418206 223.97842819 17.2375679 210.49127007 C17.23778747 209.62877612 17.23800703 208.76628218 17.23823325 207.87765206 C17.23845153 207.01314997 17.23866981 206.14864788 17.2388947 205.25794876 C17.23933816 203.50627573 17.23978472 201.75460271 17.24023438 200.00292969 C17.2404558 199.13404811 17.24067723 198.26516652 17.24090537 197.3699552 C17.24485145 183.29829726 17.26230119 169.22669116 17.2855939 155.15505324 C17.30934078 140.69173809 17.32177127 126.22844891 17.32293582 111.76511395 C17.32385071 103.65102699 17.32955596 95.53700759 17.34775543 87.4229393 C17.36320153 80.51232695 17.3682504 73.60180305 17.36001733 66.6911767 C17.35612671 63.16953748 17.35696201 59.64807613 17.37107468 56.12645912 C17.3838245 52.2973607 17.37790028 48.46871371 17.36749268 44.63961792 C17.37554908 43.54221185 17.38360548 42.44480577 17.39190602 41.31414497 C17.31226211 28.71824513 15.00081311 15.11433981 5.83203125 5.796875 C4.43092106 4.57679321 3.0020348 3.38736057 1.5390625 2.2421875 C1.03117187 1.83226562 0.52328125 1.42234375 0 1 C0 0.67 0 0.34 0 0 Z " fill="#307D5B" transform="translate(1107,553)"/>
<path d="M0 0 C7.33470859 4.4101096 10.38778858 11.56777921 12.5625 19.5 C12.8925 20.49 13.2225 21.48 13.5625 22.5 C14.32455736 27.73607157 14.62223067 32.33244737 13.5625 37.5 C10.34519984 40.88607656 6.83235474 42.69204349 2.5625 44.5 C1.5725 44.995 1.5725 44.995 0.5625 45.5 C-1.43710012 45.539992 -3.43797242 45.54346799 -5.4375 45.5 C-4.695 43.7675 -4.695 43.7675 -3.9375 42 C-2.28457668 37.52366221 -1.89966251 34.2637035 -2.4375 29.5 C-4.67912425 25.24333301 -4.67912425 25.24333301 -8.4375 22.5 C-22.67714176 21.51665156 -33.64233713 24.71526454 -44.6875 33.8125 C-49.98393832 38.69024754 -52.88888628 44.33840043 -56 50.75 C-60.08297521 59.06177096 -64.99610325 66.87504368 -69.79785156 74.78515625 C-72.52230345 79.29616057 -75.19878768 83.8352641 -77.875 88.375 C-78.41020264 89.28217773 -78.94540527 90.18935547 -79.49682617 91.12402344 C-80.58807867 92.97384742 -81.67914203 94.82378298 -82.77001953 96.67382812 C-85.05104041 100.53987464 -87.33655682 104.40325452 -89.62255859 108.26635742 C-90.73515803 110.1483896 -91.84620224 112.03134218 -92.95556641 113.9152832 C-95.21399375 117.75042096 -97.47566317 121.58071412 -99.80859375 125.37109375 C-100.44925781 126.42425781 -101.08992187 127.47742188 -101.75 128.5625 C-102.28238281 129.41972656 -102.81476563 130.27695312 -103.36328125 131.16015625 C-104.62558309 133.90967916 -104.9627299 135.51397073 -104.4375 138.5 C-102.72241133 140.34444873 -102.72241133 140.34444873 -100.375 141.8125 C-82.79901431 154.66493954 -76.05617466 175.71985427 -71.62109375 196.12890625 C-67.83301552 214.67187419 -67.83301552 214.67187419 -56.55078125 229.28125 C-52.49299805 231.62141333 -47.99141861 232.5612175 -43.4375 233.5 C-43.4375 236.75 -43.4375 236.75 -44.4375 240.5 C-50.40350442 245.1144382 -58.12863813 246.18509276 -65.46484375 246.078125 C-68.97154543 245.39613834 -70.0554234 244.60166972 -72.3125 241.875 C-81.25354234 227.98600219 -85.57100651 211.32545169 -89.4375 195.4375 C-92.37916467 183.39459362 -95.35253117 171.9937022 -102.203125 161.48828125 C-103.4375 159.5 -103.4375 159.5 -104.4375 156.5 C-108.37835627 154.35044204 -112.93886135 152.9618451 -117.4375 153.5 C-126.02841766 157.80442639 -131.94697289 168.91971104 -137.4375 176.5 C-149.05163789 192.42706851 -162.65687395 209.96221655 -183.23022461 214.05566406 C-188.84448772 214.83346408 -194.46549621 214.72638183 -200.125 214.75 C-201.9493457 214.7809375 -201.9493457 214.7809375 -203.81054688 214.8125 C-214.27821759 214.85744974 -223.27590091 213.72603999 -231.78125 207.29296875 C-236.83718289 201.81968291 -237.02655073 196.14105175 -236.83984375 189.03125 C-235.6099814 178.23711829 -227.95891065 170.24912331 -220.0078125 163.41015625 C-195.43901146 144.55416153 -155.44310546 129.76228042 -124.4375 130.5 C-124.17050293 129.7795752 -123.90350586 129.05915039 -123.62841797 128.31689453 C-122.42836401 125.47839051 -121.026107 123.03421883 -119.3828125 120.4296875 C-118.774375 119.46095703 -118.1659375 118.49222656 -117.5390625 117.49414062 C-116.88679687 116.46482422 -116.23453125 115.43550781 -115.5625 114.375 C-114.88703125 113.30185547 -114.2115625 112.22871094 -113.515625 111.12304688 C-111.49369108 107.91274991 -109.46633139 104.70594121 -107.4375 101.5 C-106.39306089 99.84646044 -105.34877406 98.19282469 -104.3046875 96.5390625 C-102.87015841 94.26752318 -101.43515392 91.9962926 -99.99853516 89.72607422 C-95.9544101 83.33218465 -91.94396697 76.91753681 -87.9375 70.5 C-86.04173089 67.46681768 -84.14565932 64.43382463 -82.24951172 61.40087891 C-81.07535827 59.52115764 -79.90242879 57.64067105 -78.73095703 55.75927734 C-67.11972085 37.11534624 -67.11972085 37.11534624 -60.4375 28.5 C-59.72787109 27.56027344 -59.72787109 27.56027344 -59.00390625 26.6015625 C-54.57768099 21.05937677 -49.02839922 16.81188529 -43.4375 12.5 C-42.21160156 11.55060547 -42.21160156 11.55060547 -40.9609375 10.58203125 C-29.79836016 2.34644895 -13.99687332 -6.15753923 0 0 Z " fill="#FCFDFC" transform="translate(635.4375,633.5)"/>
<path d="M0 0 C-0.05469422 12.85314246 -7.18174124 21.25366831 -16 30 C-29.12695203 42.46258622 -44.53360166 48.50949556 -62.45703125 48.2578125 C-67.59656753 47.88382199 -71.40512908 46.7795101 -75.703125 43.83203125 C-77.84706968 40.80338651 -77.50092179 38.60511895 -77 35 C-75.30758589 32.53339646 -73.82866088 30.7033426 -71.75 28.625 C-71.20641846 28.06409668 -70.66283691 27.50319336 -70.1027832 26.92529297 C-51.4098752 8.07870031 -26.341468 -0.40267212 0 0 Z " fill="#3F9A71" transform="translate(492,785)"/>
</svg>
